<?xml version="1.0" encoding="UTF-8" standalone="no"?>
<!-- Created with Inkscape (http://www.inkscape.org/) -->

<svg
   width="1080"
   height="1080"
   viewBox="0 0 1080 1080"
   version="1.1"
   id="svg5"
   inkscape:export-filename="bitmap.png"
   inkscape:export-xdpi="96"
   inkscape:export-ydpi="96"
   inkscape:version="1.2 (dc2aedaf03, 2022-05-15)"
   sodipodi:docname="habit tracker icon.svg"
   xmlns:inkscape="http://www.inkscape.org/namespaces/inkscape"
   xmlns:sodipodi="http://sodipodi.sourceforge.net/DTD/sodipodi-0.dtd"
   xmlns="http://www.w3.org/2000/svg"
   xmlns:svg="http://www.w3.org/2000/svg">
  <sodipodi:namedview
     id="namedview7"
     pagecolor="#505050"
     bordercolor="#ffffff"
     borderopacity="1"
     inkscape:showpageshadow="0"
     inkscape:pageopacity="0"
     inkscape:pagecheckerboard="1"
     inkscape:deskcolor="#505050"
     inkscape:document-units="px"
     showgrid="false"
     inkscape:zoom="0.41842902"
     inkscape:cx="720.55232"
     inkscape:cy="599.86279"
     inkscape:window-width="1366"
     inkscape:window-height="710"
     inkscape:window-x="0"
     inkscape:window-y="0"
     inkscape:window-maximized="1"
     inkscape:current-layer="layer1" />
  <defs
     id="defs2">
    <inkscape:path-effect
       effect="fillet_chamfer"
       id="path-effect1030"
       is_visible="true"
       lpeversion="1"
       nodesatellites_param="F,0,0,1,0,50,0,1 @ F,0,0,1,0,50,0,1 @ F,0,0,1,0,50,0,1 @ F,0,0,1,0,50,0,1 @ F,0,0,1,0,50,0,1 @ F,0,0,1,0,50,0,1 @ F,0,0,1,0,50,0,1 @ F,0,0,1,0,50,0,1 @ F,0,0,1,0,50,0,1"
       unit="px"
       method="auto"
       mode="F"
       radius="50"
       chamfer_steps="1"
       flexible="false"
       use_knot_distance="true"
       apply_no_radius="true"
       apply_with_radius="true"
       only_selected="false"
       hide_knots="false" />
    <inkscape:path-effect
       effect="fillet_chamfer"
       id="path-effect1012"
       is_visible="true"
       lpeversion="1"
       nodesatellites_param="F,0,0,1,0,32,0,1 @ F,0,0,1,0,64.107782,0,1 @ F,0,0,1,0,32,0,1 @ F,0,0,1,0,32,0,1 @ F,0,0,1,0,32,0,1 @ F,0,0,1,0,32,0,1"
       unit="px"
       method="auto"
       mode="F"
       radius="32"
       chamfer_steps="1"
       flexible="false"
       use_knot_distance="true"
       apply_no_radius="true"
       apply_with_radius="true"
       only_selected="false"
       hide_knots="false" />
    <inkscape:path-effect
       effect="fillet_chamfer"
       id="path-effect2019"
       is_visible="true"
       lpeversion="1"
       nodesatellites_param="F,0,0,1,0,32,0,1 @ F,0,0,1,0,64.107782,0,1 @ F,0,0,1,0,32,0,1 @ F,0,0,1,0,32,0,1 @ F,0,0,1,0,32,0,1 @ F,0,0,1,0,32,0,1"
       unit="px"
       method="auto"
       mode="F"
       radius="32"
       chamfer_steps="1"
       flexible="false"
       use_knot_distance="true"
       apply_no_radius="true"
       apply_with_radius="true"
       only_selected="false"
       hide_knots="false" />
    <inkscape:path-effect
       effect="fillet_chamfer"
       id="path-effect1950"
       is_visible="true"
       lpeversion="1"
       nodesatellites_param="F,0,0,1,0,50,0,1 @ F,0,0,1,0,50,0,1 @ F,0,0,1,0,50,0,1 @ F,0,0,1,0,50,0,1 @ F,0,0,1,0,50,0,1 @ F,0,0,1,0,50,0,1 @ F,0,0,1,0,50,0,1 @ F,0,0,1,0,50,0,1 @ F,0,0,1,0,50,0,1"
       unit="px"
       method="auto"
       mode="F"
       radius="50"
       chamfer_steps="1"
       flexible="false"
       use_knot_distance="true"
       apply_no_radius="true"
       apply_with_radius="true"
       only_selected="false"
       hide_knots="false" />
  </defs>
  <g
     inkscape:label="Layer 1"
     inkscape:groupmode="layer"
     id="layer1">
    <rect
       style="fill:#0074e4;stroke-width:1.00262;fill-opacity:1"
       id="rect61"
       width="1080"
       height="1080"
       x="0"
       y="0" />
    <g
       id="g982">
      <g
         id="g1026"
         style="fill:#000000;opacity:0.16418381"
         transform="translate(3.360785,20.706171)">
        <path
           id="path1022"
           style="opacity:0.463054;fill:#000000;stroke-width:0.966321"
           d="M 540.00003,90 A 450,450 0 0 0 90,540 a 450,450 0 0 0 450.00003,450 450,450 0 0 0 450,-450 450,450 0 0 0 -450,-450 z m 0,99.17969 A 350.82129,350.82129 0 0 1 890.8223,540 350.82129,350.82129 0 0 1 540.00003,890.82227 350.82129,350.82129 0 0 1 189.17972,540 350.82129,350.82129 0 0 1 540.00003,189.17969 Z" />
        <path
           id="path1024"
           style="fill:#000000;stroke-width:0.966321"
           d="M 477.84265,92.850312 C 230.07872,122.17761 43.284879,384.9699 97.339671,628.69502 c 5.975069,26.94069 19.432859,69.79914 29.943029,95.31459 105.11126,255.17778 461.68723,345.73989 678.95254,180.53849 21.96634,-16.70249 54.65439,-47.55331 72.83564,-68.31586 83.06243,-94.8553 123.28762,-225.70508 107.85343,-350.83973 -3.37834,-27.39029 -30.83007,-43.98344 -57.70039,-37.617 -26.47413,6.27257 -41.35125,32.94551 -38.26134,60.35482 23.38754,207.46094 -172.34827,404.65036 -379.94495,383.12724 -27.43588,-2.84449 -71.35579,-12.87783 -97.30541,-22.2285 C 218.37928,798.64293 127.02543,538.28374 236.07973,361.46572 c 14.47954,-23.47679 42.87636,-58.47471 62.84483,-77.5028 88.07849,-83.93054 222.65269,-112.90376 337.81885,-82.77457 26.68948,6.98237 56.36759,-4.21661 67.62285,-29.43297 10.52107,-23.57147 -1.346,-52.10918 -27.64343,-60.48721 -32.13579,-10.23807 -65.42463,-16.857092 -99.03258,-19.691262 -27.50214,-2.319266 -72.4436,-1.97035 -99.8476,1.273404 z"
           inkscape:path-effect="#path-effect1030"
           inkscape:original-d="M 527.73633,90.167969 C 238.98213,87.167807 13.137125,404.83987 111.26028,676.68246 193.87908,984.06383 621.09138,1091.7837 843.97933,871.80774 962.9712,764.84294 1016.2336,591.58415 977.87695,436.24805 945.68099,443.8763 913.48502,451.50456 881.28906,459.13281 949.68654,699.58553 702.84211,948.21795 461.93522,882.02433 217.3954,837.27406 102.07297,508.76995 265.71794,321.26737 360.45303,195.11882 545.58795,157.6258 683.98681,217.41365 697.12988,187.96782 710.27295,158.522 723.41602,129.07617 662.19183,101.68934 594.78032,88.285488 527.73633,90.167969 Z" />
      </g>
      <g
         id="g1955">
        <path
           id="circle1113"
           style="fill:#ffffff;stroke-width:0.966321;opacity:0.46305403"
           d="M 540.00003,90 A 450,450 0 0 0 90,540 a 450,450 0 0 0 450.00003,450 450,450 0 0 0 450,-450 450,450 0 0 0 -450,-450 z m 0,99.17969 A 350.82129,350.82129 0 0 1 890.8223,540 350.82129,350.82129 0 0 1 540.00003,890.82227 350.82129,350.82129 0 0 1 189.17972,540 350.82129,350.82129 0 0 1 540.00003,189.17969 Z" />
        <path
           id="path219"
           style="fill:#ffffff;stroke-width:0.966321"
           d="M 477.84265,92.850312 C 230.07872,122.17761 43.284879,384.9699 97.339671,628.69502 c 5.975069,26.94069 19.432859,69.79914 29.943029,95.31459 105.11126,255.17778 461.68723,345.73989 678.95254,180.53849 21.96634,-16.70249 54.65439,-47.55331 72.83564,-68.31586 83.06243,-94.8553 123.28762,-225.70508 107.85343,-350.83973 -3.37834,-27.39029 -30.83007,-43.98344 -57.70039,-37.617 -26.47413,6.27257 -41.35125,32.94551 -38.26134,60.35482 23.38754,207.46094 -172.34827,404.65036 -379.94495,383.12724 -27.43588,-2.84449 -71.35579,-12.87783 -97.30541,-22.2285 C 218.37928,798.64293 127.02543,538.28374 236.07973,361.46572 c 14.47954,-23.47679 42.87636,-58.47471 62.84483,-77.5028 88.07849,-83.93054 222.65269,-112.90376 337.81885,-82.77457 26.68948,6.98237 56.36759,-4.21661 67.62285,-29.43297 10.52107,-23.57147 -1.346,-52.10918 -27.64343,-60.48721 -32.13579,-10.23807 -65.42463,-16.857092 -99.03258,-19.691262 -27.50214,-2.319266 -72.4436,-1.97035 -99.8476,1.273404 z"
           inkscape:path-effect="#path-effect1950"
           inkscape:original-d="M 527.73633,90.167969 C 238.98213,87.167807 13.137125,404.83987 111.26028,676.68246 193.87908,984.06383 621.09138,1091.7837 843.97933,871.80774 962.9712,764.84294 1016.2336,591.58415 977.87695,436.24805 945.68099,443.8763 913.48502,451.50456 881.28906,459.13281 949.68654,699.58553 702.84211,948.21795 461.93522,882.02433 217.3954,837.27406 102.07297,508.76995 265.71794,321.26737 360.45303,195.11882 545.58795,157.6258 683.98681,217.41365 697.12988,187.96782 710.27295,158.522 723.41602,129.07617 662.19183,101.68934 594.78032,88.285488 527.73633,90.167969 Z" />
      </g>
      <path
         id="path1008"
         style="opacity:0.14728503;fill:#000000;fill-opacity:1;stroke-width:0.501891"
         d="m 358.79834,620.55519 97.39211,92.20017 c 25.71161,24.34092 66.2872,23.22977 90.62812,-2.48184 71.1588,-75.16587 142.3176,-150.33175 213.47641,-225.49762 12.15,-12.83419 11.59536,-33.08787 -1.23883,-45.23787 -12.63072,-11.95738 -25.26143,-23.91475 -37.89215,-35.87213 -12.83419,-12.14999 -33.08788,-11.59534 -45.23788,1.23884 -51.89295,54.81514 -103.7859,109.63026 -155.67885,164.4454 -12.15,12.83418 -32.40368,13.38883 -45.23787,1.23883 -12.1133,-11.46754 -24.2266,-22.93508 -36.33989,-34.40261 -12.83419,-12.15 -33.08788,-11.59535 -45.23788,1.23883 -11.95737,12.63071 -23.91474,25.26142 -35.87211,37.89213 -12.15001,12.83419 -11.59537,33.08787 1.23882,45.23787 z"
         inkscape:path-effect="#path-effect1012"
         inkscape:original-d="m 335.55999,598.55567 c 55.72848,52.75761 111.45696,105.51522 167.18544,158.27283 93.18302,-98.43032 186.36604,-196.86064 279.54907,-295.29095 -28.12295,-26.62373 -56.2459,-53.24745 -84.36886,-79.87116 -66.55929,70.30737 -133.1186,140.61473 -199.67789,210.9221 -27.60553,-26.13389 -55.21107,-52.26777 -82.8166,-78.40165 -26.62372,28.12295 -53.24743,56.24589 -79.87116,84.36883 z" />
      <path
         id="rect2009"
         style="opacity:1;fill:#ffffff;fill-opacity:1;stroke-width:0.501891"
         d="m 356.79834,602.55519 97.39211,92.20017 c 25.71161,24.34092 66.2872,23.22977 90.62812,-2.48184 71.1588,-75.16587 142.3176,-150.33175 213.47641,-225.49762 12.15,-12.83419 11.59536,-33.08787 -1.23883,-45.23787 -12.63072,-11.95738 -25.26143,-23.91475 -37.89215,-35.87213 -12.83419,-12.14999 -33.08788,-11.59534 -45.23788,1.23884 -51.89295,54.81514 -103.7859,109.63026 -155.67885,164.4454 -12.15,12.83418 -32.40368,13.38883 -45.23787,1.23883 -12.1133,-11.46754 -24.2266,-22.93508 -36.33989,-34.40261 -12.83419,-12.15 -33.08788,-11.59535 -45.23788,1.23883 -11.95737,12.63071 -23.91474,25.26142 -35.87211,37.89213 -12.15001,12.83419 -11.59537,33.08787 1.23882,45.23787 z"
         inkscape:path-effect="#path-effect2019"
         inkscape:original-d="m 333.55999,580.55567 c 55.72848,52.75761 111.45696,105.51522 167.18544,158.27283 93.18302,-98.43032 186.36604,-196.86064 279.54907,-295.29095 -28.12295,-26.62373 -56.2459,-53.24745 -84.36886,-79.87116 -66.55929,70.30737 -133.1186,140.61473 -199.67789,210.9221 -27.60553,-26.13389 -55.21107,-52.26777 -82.8166,-78.40165 -26.62372,28.12295 -53.24743,56.24589 -79.87116,84.36883 z" />
    </g>
  </g>
</svg>
